<svg width="719" height="109" viewBox="0 0 719 109" fill="none" xmlns="http://www.w3.org/2000/svg">
<path d="M38.554 103.22C26.9233 103.22 17.814 100.414 11.226 94.802C4.71934 89.1087 1.26268 80.894 0.856009 70.158C0.774675 67.962 0.734009 64.3833 0.734009 59.422C0.734009 54.3793 0.774675 50.7193 0.856009 48.442C1.26268 37.8687 4.80068 29.7353 11.47 24.042C18.1393 18.2673 27.1673 15.38 38.554 15.38C45.7113 15.38 52.1367 16.6 57.83 19.04C63.5233 21.3987 67.9967 24.8147 71.25 29.288C74.5847 33.68 76.2927 38.8447 76.374 44.782V45.026C76.374 45.6767 76.0893 46.246 75.52 46.734C75.032 47.1407 74.4627 47.344 73.812 47.344H57.342C56.2847 47.344 55.4713 47.1407 54.902 46.734C54.3327 46.246 53.8447 45.392 53.438 44.172C52.2993 40.024 50.51 37.1367 48.07 35.51C45.63 33.802 42.4173 32.948 38.432 32.948C28.8347 32.948 23.8733 38.316 23.548 49.052C23.4667 51.248 23.426 54.6233 23.426 59.178C23.426 63.7327 23.4667 67.1893 23.548 69.548C23.8733 80.284 28.8347 85.652 38.432 85.652C42.4173 85.652 45.6707 84.798 48.192 83.09C50.7133 81.3007 52.462 78.4133 53.438 74.428C53.7633 73.208 54.2107 72.3947 54.78 71.988C55.3493 71.5 56.2033 71.256 57.342 71.256H73.812C74.544 71.256 75.154 71.5 75.642 71.988C76.2113 72.476 76.4553 73.086 76.374 73.818C76.2927 79.7553 74.5847 84.9607 71.25 89.434C67.9967 93.826 63.5233 97.242 57.83 99.682C52.1367 102.041 45.7113 103.22 38.554 103.22Z" fill="white"/>
<path d="M211.393 102C210.579 102 209.847 101.715 209.197 101.146C208.627 100.495 208.343 99.7633 208.343 98.95V19.65C208.343 18.7553 208.627 18.0233 209.197 17.454C209.847 16.8847 210.579 16.6 211.393 16.6H243.113C255.069 16.6 264.341 19.4467 270.929 25.14C277.517 30.8333 280.973 39.0887 281.299 49.906C281.38 52.2647 281.421 55.396 281.421 59.3C281.421 63.204 281.38 66.2947 281.299 68.572C280.892 79.8773 277.517 88.2953 271.173 93.826C264.91 99.2753 255.76 102 243.723 102H211.393ZM243.113 84.432C248.481 84.432 252.425 83.1713 254.947 80.65C257.468 78.0473 258.81 73.94 258.973 68.328C259.135 65.9693 259.217 62.9193 259.217 59.178C259.217 55.4367 259.135 52.4273 258.973 50.15C258.81 44.7007 257.346 40.6747 254.581 38.072C251.897 35.4693 247.871 34.168 242.503 34.168H230.303V84.432H243.113Z" fill="white"/>
<path d="M301.773 102C300.959 102 300.227 101.715 299.577 101.146C299.007 100.495 298.723 99.7633 298.723 98.95V19.65C298.723 18.7553 299.007 18.0233 299.577 17.454C300.227 16.8847 300.959 16.6 301.773 16.6H358.747C359.641 16.6 360.373 16.8847 360.943 17.454C361.512 18.0233 361.797 18.7553 361.797 19.65V31.118C361.797 31.9313 361.512 32.6633 360.943 33.314C360.373 33.8833 359.641 34.168 358.747 34.168H319.829V50.638H356.063C356.957 50.638 357.689 50.9633 358.259 51.614C358.828 52.1833 359.113 52.9153 359.113 53.81V64.424C359.113 65.2373 358.828 65.9693 358.259 66.62C357.689 67.1893 356.957 67.474 356.063 67.474H319.829V84.432H359.723C360.617 84.432 361.349 84.7167 361.919 85.286C362.488 85.8553 362.773 86.5873 362.773 87.482V98.95C362.773 99.7633 362.488 100.495 361.919 101.146C361.349 101.715 360.617 102 359.723 102H301.773Z" fill="white"/>
<path d="M413.99 103.22C402.359 103.22 393.25 100.414 386.662 94.802C380.155 89.1087 376.699 80.894 376.292 70.158C376.211 67.962 376.17 64.3833 376.17 59.422C376.17 54.3793 376.211 50.7193 376.292 48.442C376.699 37.8687 380.237 29.7353 386.906 24.042C393.575 18.2673 402.603 15.38 413.99 15.38C421.147 15.38 427.573 16.6 433.266 19.04C438.959 21.3987 443.433 24.8147 446.686 29.288C450.021 33.68 451.729 38.8447 451.81 44.782V45.026C451.81 45.6767 451.525 46.246 450.956 46.734C450.468 47.1407 449.899 47.344 449.248 47.344H432.778C431.721 47.344 430.907 47.1407 430.338 46.734C429.769 46.246 429.281 45.392 428.874 44.172C427.735 40.024 425.946 37.1367 423.506 35.51C421.066 33.802 417.853 32.948 413.868 32.948C404.271 32.948 399.309 38.316 398.984 49.052C398.903 51.248 398.862 54.6233 398.862 59.178C398.862 63.7327 398.903 67.1893 398.984 69.548C399.309 80.284 404.271 85.652 413.868 85.652C417.853 85.652 421.107 84.798 423.628 83.09C426.149 81.3007 427.898 78.4133 428.874 74.428C429.199 73.208 429.647 72.3947 430.216 71.988C430.785 71.5 431.639 71.256 432.778 71.256H449.248C449.98 71.256 450.59 71.5 451.078 71.988C451.647 72.476 451.891 73.086 451.81 73.818C451.729 79.7553 450.021 84.9607 446.686 89.434C443.433 93.826 438.959 97.242 433.266 99.682C427.573 102.041 421.147 103.22 413.99 103.22Z" fill="white"/>
<path d="M502.58 103.22C491.112 103.22 482.084 100.414 475.496 94.802C468.908 89.19 465.411 80.9347 465.004 70.036C464.923 67.6773 464.882 64.18 464.882 59.544C464.882 54.8267 464.923 51.2887 465.004 48.93C465.411 38.194 468.949 29.9387 475.618 24.164C482.369 18.308 491.356 15.38 502.58 15.38C513.804 15.38 522.791 18.308 529.542 24.164C536.293 29.9387 539.831 38.194 540.156 48.93C540.319 53.6473 540.4 57.1853 540.4 59.544C540.4 61.8213 540.319 65.3187 540.156 70.036C539.749 80.9347 536.252 89.19 529.664 94.802C523.076 100.414 514.048 103.22 502.58 103.22ZM502.58 85.652C507.053 85.652 510.591 84.31 513.194 81.626C515.878 78.942 517.301 74.8347 517.464 69.304C517.627 64.5867 517.708 61.252 517.708 59.3C517.708 57.1853 517.627 53.8507 517.464 49.296C517.301 43.7653 515.878 39.658 513.194 36.974C510.51 34.29 506.972 32.948 502.58 32.948C498.188 32.948 494.65 34.29 491.966 36.974C489.363 39.658 487.94 43.7653 487.696 49.296C487.615 51.5733 487.574 54.908 487.574 59.3C487.574 63.6107 487.615 66.9453 487.696 69.304C487.94 74.8347 489.363 78.942 491.966 81.626C494.569 84.31 498.107 85.652 502.58 85.652Z" fill="white"/>
<path d="M592.484 103.22C581.016 103.22 571.988 100.414 565.4 94.802C558.812 89.19 555.314 80.9347 554.908 70.036C554.826 67.6773 554.786 64.18 554.786 59.544C554.786 54.8267 554.826 51.2887 554.908 48.93C555.314 38.194 558.852 29.9387 565.522 24.164C572.272 18.308 581.26 15.38 592.484 15.38C603.708 15.38 612.695 18.308 619.446 24.164C626.196 29.9387 629.734 38.194 630.06 48.93C630.222 53.6473 630.304 57.1853 630.304 59.544C630.304 61.8213 630.222 65.3187 630.06 70.036C629.653 80.9347 626.156 89.19 619.568 94.802C612.98 100.414 603.952 103.22 592.484 103.22ZM592.484 85.652C596.957 85.652 600.495 84.31 603.098 81.626C605.782 78.942 607.205 74.8347 607.368 69.304C607.53 64.5867 607.612 61.252 607.612 59.3C607.612 57.1853 607.53 53.8507 607.368 49.296C607.205 43.7653 605.782 39.658 603.098 36.974C600.414 34.29 596.876 32.948 592.484 32.948C588.092 32.948 584.554 34.29 581.87 36.974C579.267 39.658 577.844 43.7653 577.6 49.296C577.518 51.5733 577.478 54.908 577.478 59.3C577.478 63.6107 577.518 66.9453 577.6 69.304C577.844 74.8347 579.267 78.942 581.87 81.626C584.472 84.31 588.01 85.652 592.484 85.652Z" fill="white"/>
<path d="M650.545 102C649.732 102 649 101.715 648.349 101.146C647.78 100.495 647.495 99.7633 647.495 98.95V19.65C647.495 18.7553 647.78 18.0233 648.349 17.454C649 16.8847 649.732 16.6 650.545 16.6H684.705C695.116 16.6 703.29 18.9993 709.227 23.798C715.246 28.5967 718.255 35.5913 718.255 44.782C718.255 53.8913 715.286 60.764 709.349 65.4C703.412 69.9547 695.197 72.232 684.705 72.232H670.187V98.95C670.187 99.8447 669.862 100.577 669.211 101.146C668.642 101.715 667.91 102 667.015 102H650.545ZM684.095 55.396C687.674 55.396 690.48 54.5013 692.513 52.712C694.546 50.8413 695.563 48.1167 695.563 44.538C695.563 41.2033 694.587 38.56 692.635 36.608C690.764 34.5747 687.918 33.558 684.095 33.558H669.821V55.396H684.095Z" fill="white"/>
<path d="M173.761 18.4858C173.165 18.4858 172.585 18.7273 172.163 19.1453C171.741 19.5674 171.5 20.1513 171.5 20.7466C171.5 21.3419 171.741 21.9258 172.163 22.3442C172.585 22.7662 173.165 23.0073 173.761 23.0073C174.356 23.0073 174.94 22.7662 175.362 22.3442C175.78 21.9221 176.021 21.3419 176.021 20.7466C176.021 20.1513 175.78 19.5674 175.362 19.1453C174.94 18.727 174.356 18.4858 173.761 18.4858Z" fill="white"/>
<path d="M171.364 34.259C169.363 33.7107 167.289 34.8906 166.736 36.894C166.714 36.9741 164.457 44.9817 158.357 52.4341C151.171 61.2143 141.865 65.5662 130.62 65.4055V56.5398C130.62 54.4588 128.933 52.7721 126.853 52.7721C124.772 52.7721 123.085 54.4592 123.085 56.5398V68.9735C123.085 70.9212 124.569 72.5477 126.508 72.7254C128.124 72.8736 129.687 72.9445 131.201 72.9445C147.802 72.9445 158.326 64.4593 164.376 56.978C171.395 48.2976 173.904 39.2572 174.007 38.8766C174.551 36.8717 173.369 34.8076 171.364 34.259Z" fill="white"/>
<path d="M175.556 6.2863C175.233 4.45238 174.176 2.33036 172.65 1.26238C171.125 0.194036 169.276 -0.21554 167.442 0.10779C166.2 0.326891 165.059 0.872993 164.124 1.67416C162.92 1.37138 161.655 1.32 160.425 1.53617C155.617 2.38431 152.395 6.98581 153.242 11.7939C153.89 15.4636 156.726 18.2018 160.169 18.9197C156.874 25.9951 151.759 30.3885 143.732 33.0677C133.12 36.6096 117.593 36.9645 96.2603 34.154C95.127 34.0046 93.986 34.3782 93.1606 35.1695C92.3349 35.9608 91.9135 37.0842 92.0148 38.223C92.0651 38.7874 93.3258 52.2003 100.403 65.4715C102.954 70.2554 105.931 74.3949 109.297 77.8821C107.405 78.1754 105.646 78.8771 104.112 79.8915L103.85 79.6298C102.82 78.6004 101.15 78.6004 100.12 79.6298C99.0899 80.66 99.0899 82.3298 100.12 83.36L100.381 83.6217C99.0154 85.6887 98.2172 88.1626 98.2172 90.8205C98.2172 98.0402 104.091 103.914 111.31 103.914H126.89L131.204 108.228C131.72 108.743 132.394 109 133.069 109C133.744 109 134.419 108.742 134.934 108.228C135.964 107.198 135.964 105.528 134.934 104.498L134.351 103.914H173.479C180.699 103.914 186.572 98.0402 186.572 90.8205C186.572 88.1626 185.774 85.689 184.408 83.6217L184.67 83.36C185.7 82.3298 185.7 80.66 184.67 79.6298C183.64 78.6004 181.97 78.6004 180.939 79.6298L180.678 79.8915C179.162 78.8896 177.428 78.1944 175.562 77.8946C176.101 77.2843 176.63 76.6615 177.138 76.0104C186.579 63.9151 188.926 47.1147 189.009 33.7965C189.337 33.8259 189.656 33.8453 189.957 33.8453C192.164 33.8453 193.639 33.1011 194.567 32.3428C196.394 30.8513 197.292 28.388 197.096 25.4076C196.802 20.932 192.802 18.6286 190.226 17.8836L192.113 15.1759C192.916 14.0246 193.011 12.5221 192.362 11.2783C191.713 10.0338 190.425 9.25389 189.022 9.25389H184.71C182.997 8.18371 179.573 6.40888 175.556 6.2863ZM162.755 13.7812C160.812 14.1229 158.78 12.8212 158.437 10.8782C158.095 8.93423 159.397 7.07389 161.34 6.73111C162.137 6.59128 162.941 6.72156 163.659 7.10985C164.91 7.78514 166.473 7.34767 167.19 6.11931C167.443 5.68661 167.868 5.38934 168.358 5.30273C168.804 5.22272 169.253 5.32401 169.625 5.58349C169.996 5.84332 170.364 6.67422 170.443 7.12013C167.405 8.2505 164.832 10.4922 162.755 13.7812ZM105.753 90.8205C105.753 90.267 105.836 89.7334 105.988 89.2284L106.336 89.5771C106.852 90.092 107.527 90.3492 108.202 90.3492C108.876 90.3492 109.551 90.0916 110.067 89.5771C111.096 88.5469 111.096 86.877 110.067 85.8468L109.718 85.4982C110.223 85.347 110.757 85.2629 111.31 85.2629H125.873C125.551 85.3918 125.248 85.5859 124.987 85.8468L118.77 92.0639C117.74 93.0941 117.74 94.7639 118.77 95.7941C119.031 96.055 119.334 96.2492 119.656 96.378H111.31C108.246 96.378 105.753 93.8846 105.753 90.8205ZM174.722 89.5771C175.238 90.092 175.913 90.3492 176.588 90.3492C177.262 90.3492 177.937 90.0916 178.453 89.5771L178.801 89.2284C178.953 89.7334 179.037 90.267 179.037 90.8205C179.037 92.9931 177.78 94.8733 175.959 95.7868L172.236 92.0639C171.206 91.0344 169.536 91.0344 168.506 92.0639C167.476 93.0941 167.476 94.7639 168.506 95.7941L169.09 96.378H146.785L147.369 95.7941C148.398 94.7639 148.398 93.0941 147.369 92.0639C146.338 91.0344 144.668 91.0344 143.638 92.0639L139.324 96.378H121.614C121.937 96.2492 122.239 96.055 122.501 95.7941L128.718 89.5771C129.748 88.5469 129.748 86.877 128.718 85.8468C128.456 85.5859 128.154 85.3918 127.831 85.2629H156.656L156.072 85.8468C155.042 86.877 155.042 88.5469 156.072 89.5771C156.587 90.092 157.262 90.3492 157.937 90.3492C158.612 90.3492 159.287 90.0916 159.802 89.5771L164.116 85.2629H173.479C174.033 85.2629 174.566 85.3466 175.071 85.4982L174.723 85.8468C173.692 86.877 173.692 88.5469 174.722 89.5771ZM180.18 15.7212C184.91 22.3023 184.734 54.0507 171.186 71.3884C169.248 73.8682 167.019 75.9792 164.515 77.7272H120.729C115.34 74.0991 110.801 68.8938 107.153 62.1138C103.142 54.66 101.168 46.9793 100.249 42.2365C139.172 46.66 159.441 40.1167 167.626 20.7026C169.233 16.8894 171.243 14.6364 173.601 14.0062C175.807 13.415 179.201 14.3593 180.18 15.7212ZM191.231 28.2566C190.827 28.5869 189.992 28.6555 188.924 28.4709C188.85 26.4807 188.734 24.6152 188.596 22.9068C188.723 22.942 191.703 23.799 191.831 25.754C191.91 26.9493 191.686 27.8852 191.231 28.2566Z" fill="white"/>
</svg>
